HIERARCHY
ROOT Pelvis
{
	OFFSET 0.020139 0.929156 0.030599
	CHANNELS 6 Xposition Yposition Zposition Zrotation Yrotation Xrotation 
	JOINT L_Hip
	{
		OFFSET 0.054449 -0.084189 -0.011329
		CHANNELS 3 Zrotation Yrotation Xrotation
		JOINT L_Knee
		{
			OFFSET 0.011888 -0.394484 -0.012914
			CHANNELS 3 Zrotation Yrotation Xrotation
			JOINT L_Ankle
			{
				OFFSET -0.083287 -0.416902 -0.054160
				CHANNELS 3 Zrotation Yrotation Xrotation
				End Site #name: L_Foot
				{
					OFFSET 0.085461 -0.029440 0.110041
				}
			}
		}
	}
	JOINT R_Hip
	{
		OFFSET -0.059257 -0.090628 -0.002796
		CHANNELS 3 Zrotation Yrotation Xrotation
		JOINT R_Knee
		{
			OFFSET -0.055229 -0.375684 0.086271
			CHANNELS 3 Zrotation Yrotation Xrotation
			JOINT R_Ankle
			{
				OFFSET 0.018580 -0.376637 -0.195437
				CHANNELS 3 Zrotation Yrotation Xrotation
				End Site #name: R_Foot
				{
					OFFSET -0.076367 -0.071718 0.107304
				}
			}
		}
	}
	JOINT Spine1
	{
		OFFSET 0.001781 0.125214 -0.045297
		CHANNELS 3 Zrotation Yrotation Xrotation
		JOINT Spine2
		{
			OFFSET 0.012970 0.140736 0.027310
			CHANNELS 3 Zrotation Yrotation Xrotation
			JOINT Spine3
			{
				OFFSET -0.000551 0.057577 0.006221
				CHANNELS 3 Zrotation Yrotation Xrotation
				JOINT Neck
				{
					OFFSET 0.001956 0.217733 -0.010899
					CHANNELS 3 Zrotation Yrotation Xrotation
					End Site #name: Head
					{
						OFFSET 0.004417 0.088093 0.056627
					}
				}
				JOINT L_Collar
				{
					OFFSET 0.077036 0.111749 -0.008130
					CHANNELS 3 Zrotation Yrotation Xrotation
					JOINT L_Shoulder
					{
						OFFSET 0.129713 -0.017363 -0.014088
						CHANNELS 3 Zrotation Yrotation Xrotation
						JOINT L_Elbow
						{
							OFFSET -0.004351 -0.255949 -0.041247
							CHANNELS 3 Zrotation Yrotation Xrotation
							End Site #name: L_Wrist
							{
								OFFSET 0.037420 -0.244883 0.090666
							}
						}
					}
				}
				JOINT R_Collar
				{
					OFFSET -0.074679 0.119376 -0.014605
					CHANNELS 3 Zrotation Yrotation Xrotation
					JOINT R_Shoulder
					{
						OFFSET -0.121114 0.006961 -0.005321
						CHANNELS 3 Zrotation Yrotation Xrotation
						JOINT R_Elbow
						{
							OFFSET -0.025268 -0.253943 -0.059988
							CHANNELS 3 Zrotation Yrotation Xrotation
							End Site #name: R_Wrist
							{
								OFFSET -0.053568 -0.245871 0.093654
							}
						}
					}
				}
			}
		}
	}
}
MOTION
Frames: 19
Frame Time: 0.041667
0.020139 0.929156 0.030599 0.001041 0.000305 0.006127 0.000000 0.000000 0.000000 -0.002627 0.003990 -0.018267 -0.005754 -0.002382 0.006587 -0.001750 0.000834 -0.008409 0.000000 0.000000 0.000000 0.000000 0.000000 0.000000 0.000000 0.000000 0.000000 0.000000 0.000000 0.000000 -0.001296 0.000003 -0.007517 0.000000 0.000000 0.000000 0.012835 -0.003975 0.000861 -0.019012 0.003051 0.000742 0.000000 0.000000 0.000000 0.010236 -0.011983 -0.001140 0.000000 0.000000 0.000000 0.000000 0.000000 0.000000 
0.028083 0.926652 0.036222 0.438214 0.037775 -0.477282 -0.889079 0.131276 2.692139 -0.621613 0.671940 -3.056859 0.726007 1.303478 -0.485694 -0.883286 0.579314 -5.568804 1.604047 -0.440198 11.713264 -2.854044 -4.559679 0.420263 -0.053335 -0.056629 0.729724 -0.596579 0.046774 -1.193737 -0.102131 -0.374339 1.111125 -0.348493 0.247538 -0.515484 -0.916686 -1.929835 -0.342725 1.304011 -0.200417 -0.341095 0.534620 0.210904 0.088942 -0.615651 0.209849 0.037974 0.338591 -0.050133 -0.291206 -0.739111 -0.184217 -0.460423 
0.033528 0.925765 0.042314 0.439354 0.308167 -1.507464 -1.116361 0.238399 5.048012 -0.395563 1.041595 -5.074731 0.665725 1.318673 -0.402022 -1.138963 1.345403 -11.473618 2.958727 -1.101434 23.051571 -5.577774 -9.456091 1.812092 -0.015109 -0.149118 1.647628 -0.229258 0.025065 0.025290 -1.168757 -0.699427 0.514860 0.839843 -0.575296 0.580356 -1.456379 -4.455941 -0.700033 2.910980 -0.461288 -0.188697 2.038851 0.589142 -1.233466 -0.170486 0.026021 0.008946 -0.255545 0.173014 -1.162663 -0.370219 0.110562 -1.170436 
0.038896 0.925857 0.050905 0.148578 0.314756 -2.315632 -0.961896 0.314248 7.309509 0.027236 1.211889 -6.112849 0.385737 0.688984 -0.259324 -0.729589 2.047445 -15.227226 3.774287 -1.718436 27.130371 -6.241296 -9.707735 1.073834 0.158590 -0.250548 2.338183 -0.546235 0.064449 0.376860 -0.986163 -0.924635 0.349301 1.285302 -0.960749 2.007420 -2.058229 -5.204239 -0.829197 4.543253 -0.688913 -0.764924 2.577500 0.783072 -1.319993 -0.106458 0.796232 0.049715 -0.750630 0.248265 -0.769179 -0.674545 0.202875 -2.163213 
0.043486 0.925575 0.061062 -0.330382 0.504752 -2.938096 -0.403256 0.331957 9.422268 -0.106675 1.420197 -7.122746 0.110194 0.226585 -0.063798 0.376573 2.814713 -17.356832 3.867676 -1.815030 25.364850 -6.299062 -9.106178 0.253668 0.619899 -0.399590 2.840278 -0.991439 0.124085 0.924231 -0.627630 -0.991785 -0.073322 0.791003 -0.616660 1.784697 -2.180548 -6.093303 -0.940195 5.360405 -0.792503 -1.118053 3.145011 0.921320 -1.956803 0.031926 0.569816 0.031515 -1.017486 0.301908 -0.686754 -0.232383 0.317151 -1.870818 
0.048393 0.925191 0.076507 -0.503541 0.604369 -3.192478 -0.479674 0.395318 10.988838 0.407814 1.479883 -7.585379 0.134141 0.849073 0.121987 1.062849 3.308252 -18.620759 3.776791 -1.793462 19.701605 -5.940015 -8.347393 -0.078816 0.299863 -0.309608 2.636969 -0.624889 0.077875 0.685771 -0.536511 -1.076706 0.320183 1.089208 -0.794307 1.462835 -1.932684 -6.312862 -0.952739 5.292502 -0.749214 -1.631660 3.073520 0.860705 -2.223449 -0.348599 0.411690 0.037725 -0.631711 0.177333 -0.301206 -0.501402 0.215748 -1.899558 
0.052215 0.924162 0.090721 -1.006185 0.644074 -3.173915 -0.218762 0.399301 12.147288 0.899157 1.473655 -7.700037 0.646188 1.072960 -0.462848 2.215870 3.876836 -19.108685 3.188084 -1.471058 12.186659 -5.428593 -7.544930 -0.207930 0.382416 -0.319891 2.556759 -0.588411 0.069287 0.386366 -0.231975 -1.130233 0.492004 1.160953 -0.852541 1.626762 -1.864162 -6.301970 -0.947838 5.143114 -0.717426 -1.787826 3.408138 0.957789 -2.500651 -0.522581 0.030356 0.024560 -0.444041 0.100966 0.040771 -0.471721 0.250414 -2.005161 
0.058809 0.922981 0.106621 -1.313701 0.543494 -2.935965 -0.314950 0.443891 13.076132 1.665726 1.439998 -7.757024 1.029876 1.088692 -0.955922 3.014785 4.304745 -19.579536 2.663556 -1.289574 4.505509 -4.744143 -6.495398 -0.333563 0.403907 -0.282644 2.122992 -0.917032 0.107148 0.455665 0.291397 -1.185752 0.652374 1.458032 -1.046008 1.572555 -1.737585 -6.107054 -0.917707 4.740338 -0.661638 -1.739198 3.437555 0.880918 -3.234737 -0.534609 -0.129959 0.016620 -0.477016 0.117737 -0.053635 -0.291543 0.220814 -1.536467 
0.061058 0.921202 0.124054 -1.486838 0.559397 -2.648505 -0.295888 0.462772 13.725311 1.767366 1.369149 -7.453168 1.563453 1.012670 -1.677438 3.492710 4.562638 -19.849333 2.316221 -1.267912 -2.873314 -3.611268 -5.469488 0.262444 0.492081 -0.276908 1.870524 -1.196476 0.138362 0.450069 0.593805 -1.207897 0.726663 1.860657 -1.303399 1.441801 -1.747199 -5.919390 -0.895667 4.217955 -0.612151 -1.248397 3.675768 0.851713 -4.282838 -0.321410 -0.657286 -0.021805 -0.756146 0.185953 -0.080519 0.013653 0.301643 -1.353574 
0.064058 0.920008 0.146005 -1.501896 0.590481 -2.315039 -0.452163 0.496005 13.988934 1.817507 1.180843 -6.587573 2.294534 1.428430 -2.490966 3.858309 4.735084 -19.924398 2.118668 -1.335457 -9.546054 -2.442818 -4.265460 0.717576 0.575071 -0.262317 1.542635 -1.407971 0.163223 0.502752 0.714092 -1.192929 0.915769 2.271252 -1.564555 1.307242 -1.805929 -5.623687 -0.863586 3.548727 -0.523334 -1.006064 3.665568 0.803568 -4.650818 -0.082130 -1.315365 -0.071015 -1.028545 0.253550 -0.119978 0.364451 0.544895 -1.820257 
0.066323 0.917699 0.168327 -1.389302 0.736548 -1.813402 -0.658981 0.543825 14.410989 1.605701 1.053448 -5.917421 2.617864 1.560090 -2.870631 3.913987 4.715133 -19.710560 1.582415 -1.287723 -15.647052 -1.597800 -3.690670 1.352301 0.641472 -0.241280 1.188540 -1.674169 0.197045 0.661255 0.950894 -1.162568 0.766289 2.223934 -1.543665 1.438674 -1.799151 -5.227419 -0.815805 2.706382 -0.407633 -0.697978 3.136680 0.591476 -4.593274 -0.124698 -1.527688 -0.080617 -1.197780 0.263725 0.214220 0.727968 0.753006 -2.093409 
0.067030 0.915941 0.195121 -1.240403 0.857155 -1.265067 -0.655851 0.560212 14.870247 1.424380 0.966385 -5.438800 2.758059 0.782023 -3.319589 4.213633 4.701821 -19.028824 0.741292 -1.119449 -19.268556 -1.367640 -3.574151 1.564578 0.837618 -0.200538 0.379332 -1.338883 0.170815 1.219931 0.121558 -1.160317 0.662825 2.836836 -1.921612 1.114612 -1.805121 -5.282017 -0.822699 2.337800 -0.367827 -0.239869 2.958190 0.529908 -4.495599 0.368915 -2.148802 -0.146552 -1.507067 0.326469 0.340048 1.234355 1.023898 -2.375611 
0.066147 0.911952 0.223439 -1.005432 0.953475 -0.699354 -0.752009 0.607107 15.695463 1.308795 0.818658 -4.690551 3.269126 0.503064 -4.084429 4.327618 4.618756 -18.398839 0.229781 -0.988062 -20.069711 -0.371568 -2.668611 2.066876 0.669127 -0.102029 -0.283905 -1.221619 0.159496 1.348346 0.272185 -1.085750 0.557569 2.798454 -1.912409 1.301668 -2.034264 -4.945073 -0.797281 2.111365 -0.352185 0.328027 2.464215 0.368313 -4.171243 0.148715 -1.814228 -0.113102 -1.317432 0.258612 0.598128 1.381747 0.971133 -1.896669 
0.064784 0.909694 0.255295 -1.055001 1.165046 -0.178337 -0.344548 0.567144 16.572221 1.132101 0.629062 -3.707377 3.138484 0.304940 -3.978397 4.848821 4.632156 -17.442523 -0.484762 -0.727503 -19.289241 0.771951 -2.245425 3.246558 0.897694 -0.057419 -1.167154 -1.452317 0.199203 1.883418 0.507658 -0.999211 0.281910 2.725721 -1.884387 1.536845 -2.159416 -4.651685 -0.771284 1.608663 -0.289680 0.965223 2.480756 0.448769 -3.609731 0.709482 -1.687523 -0.138579 -1.975878 0.412477 0.658614 1.298926 0.833711 -1.452111 
0.061090 0.909924 0.289081 -1.241255 1.336668 0.316565 0.349047 0.464355 17.345292 0.937007 0.314355 -2.097923 2.087354 -0.201872 -2.771817 5.380838 4.606786 -16.327056 -0.613965 -0.626381 -18.069340 1.190836 -2.287675 3.867530 0.897549 0.010756 -1.849551 -1.104671 0.155901 1.886921 0.694988 -0.908708 0.044431 2.625778 -1.820019 1.560222 -2.284911 -4.130600 -0.719817 1.291082 -0.254785 1.630149 2.106516 0.397664 -2.862727 0.967144 -1.744790 -0.157482 -2.291026 0.496438 0.558678 1.072687 0.536826 -0.555106 
0.057229 0.914302 0.328428 -1.513760 1.444526 0.735329 1.501182 0.262104 18.046560 0.527958 -0.089510 0.101912 0.492668 -0.498843 -0.805034 6.249876 4.588013 -14.705153 -0.649143 -0.563178 -17.031093 1.207665 -2.660365 4.262727 0.907553 0.124711 -3.010652 -0.812544 0.127085 2.340816 0.642026 -0.922489 -0.166110 2.923352 -2.054775 1.982012 -1.874334 -3.730225 -0.642894 1.075694 -0.239153 2.460346 1.430818 0.239573 -2.076064 1.175861 -2.064484 -0.191483 -2.836264 0.637811 0.418798 1.862445 0.905473 -0.813041 
0.050564 0.921603 0.367521 -1.836308 1.438507 1.083721 3.163657 -0.059023 17.639212 -0.656814 -0.739587 4.235326 -1.497104 -0.478457 1.751803 6.943432 4.339876 -12.460393 -0.161094 -0.724856 -16.911026 1.609785 -2.001937 4.159615 0.639629 0.302999 -4.389279 -0.132246 0.043995 2.759532 0.706009 -0.945669 -0.356628 2.684936 -1.920890 2.283154 -1.575729 -3.537721 -0.597076 1.293585 -0.303490 3.305958 0.378926 -0.126250 -1.778302 0.837028 -1.898951 -0.159752 -2.834845 0.649852 0.249901 2.339127 1.168576 -1.124396 
0.042898 0.928248 0.410098 -2.032488 1.492492 0.797930 5.293805 -0.430760 15.804287 -2.887675 -1.716380 11.856415 -4.774381 -0.614121 5.835970 7.988969 3.904756 -9.010924 -0.408364 -0.662128 -17.379660 1.779002 -0.732928 3.158350 0.689300 0.392200 -5.387750 -0.965125 0.160890 3.118781 1.800622 -0.909550 -0.367106 1.918328 -1.443109 2.783652 -1.226112 -3.422079 -0.555747 1.718003 -0.412286 4.151967 -0.767940 -0.642149 -2.210138 0.465379 -1.368305 -0.104622 -2.594286 0.591035 0.272026 1.920886 1.291173 -2.321582 
0.035099 0.932795 0.453131 -1.854893 1.375241 0.246510 7.567031 -0.655654 11.264278 -6.327434 -2.721889 23.873069 -10.069381 -1.012791 12.182956 8.664961 3.199636 -5.107101 -0.329638 -0.722157 -18.097533 0.984084 0.548916 0.859259 0.314691 0.448525 -5.407631 -1.015177 0.157922 2.595238 1.992651 -0.737853 -0.111385 1.512198 -1.206429 3.330864 -1.178067 -2.622816 -0.452623 2.871878 -0.639236 4.095979 -2.274562 -1.282010 -2.465232 -0.160682 -0.279017 -0.008584 -2.026360 0.456085 0.270075 1.452767 1.355811 -3.397058 
